<?xml version="1.0" encoding="utf-8"?>
<!-- Generator: Adobe Illustrator 21.0.0, SVG Export Plug-In . SVG Version: 6.00 Build 0)  -->
<svg version="1.1" id="Layer_1" xmlns="http://www.w3.org/2000/svg" xmlns:xlink="http://www.w3.org/1999/xlink" x="0px" y="0px"
	 viewBox="0 0 458 250" enable-background="new 0 0 458 250" xml:space="preserve">
<g>
	<defs>
		<rect id="SVGID_1_" width="458" height="250"/>
	</defs>
	<clipPath id="SVGID_2_">
		<use xlink:href="#SVGID_1_"  overflow="visible"/>
	</clipPath>
	<g clip-path="url(#SVGID_2_)">
		<defs>
			<rect id="SVGID_3_" x="0.1" y="-3" width="457.9" height="300"/>
		</defs>
		<clipPath id="SVGID_4_">
			<use xlink:href="#SVGID_3_"  overflow="visible"/>
		</clipPath>
		<g clip-path="url(#SVGID_4_)">
			<g>
				
					<image overflow="visible" opacity="0.5" width="488" height="708" xlink:href="8DBA03A2.png"  transform="matrix(1 0 0 1 -15 -10)">
				</image>
				<g>
					<linearGradient id="SVGID_5_" gradientUnits="userSpaceOnUse" x1="229.0466" y1="-4.9408" x2="229.0466" y2="680.5314">
						<stop  offset="0" style="stop-color:#26A9E0"/>
						<stop  offset="1" style="stop-color:#2B388F"/>
					</linearGradient>
					<rect x="0.1" y="-3" fill="url(#SVGID_5_)" width="457.9" height="676.3"/>
				</g>
			</g>
			<linearGradient id="SVGID_6_" gradientUnits="userSpaceOnUse" x1="305.4568" y1="534.5195" x2="305.4568" y2="90.6981">
				<stop  offset="0" style="stop-color:#2B388F"/>
				<stop  offset="1" style="stop-color:#26A9E0"/>
			</linearGradient>
			<path opacity="0.3" fill="url(#SVGID_6_)" d="M367.9,135c33.5,0,64.5,11.1,90.1,30V96.3c-27.4-13.6-57.9-21.1-90.1-21.1
				c-118.7,0-215,103-215,230.1s96.2,230.1,215,230.1c32.2,0,62.7-7.6,90.1-21.1v-68.7c-25.6,18.9-56.7,30-90.1,30
				c-87.9,0-159.1-76.2-159.1-170.2S280,135,367.9,135z"/>
			<linearGradient id="SVGID_7_" gradientUnits="userSpaceOnUse" x1="349.937" y1="431.87" x2="349.937" y2="179.2846">
				<stop  offset="0" style="stop-color:#2B388F"/>
				<stop  offset="1" style="stop-color:#26A9E0"/>
			</linearGradient>
			<path opacity="0.3" fill="url(#SVGID_7_)" d="M458,211v188.5c-22.9,25.1-54.8,40.6-90.1,40.6c-69.6,0-126-60.4-126-134.9
				s56.4-134.9,126-134.9C403.2,170.4,435.1,186,458,211z"/>
			<linearGradient id="SVGID_8_" gradientUnits="userSpaceOnUse" x1="105.8656" y1="-3.035" x2="105.8656" y2="345.8756">
				<stop  offset="0" style="stop-color:#2B388F"/>
				<stop  offset="1" style="stop-color:#26A9E0"/>
			</linearGradient>
			<path opacity="0.3" fill="url(#SVGID_8_)" d="M42.5,346.8c-1.5-13.6-2.3-27.4-2.3-41.5C40.3,172.2,109.6,56.4,211.6-3H0.1v349.8
				H42.5z"/>
		</g>
	</g>
</g>
</svg>
